<?xml version="1.0" encoding="utf-8"?>
<!-- Generator: Adobe Illustrator 26.1.0, SVG Export Plug-In . SVG Version: 6.00 Build 0)  -->
<svg version="1.1" id="Layer_1" xmlns="http://www.w3.org/2000/svg" xmlns:xlink="http://www.w3.org/1999/xlink" x="0px" y="0px"
	 viewBox="0 0 16 16" style="enable-background:new 0 0 16 16;" xml:space="preserve">
<style type="text/css">
	.st0{fill:#ACD9B2;}
	.st1{fill:#F9F2F2;}
</style>
<g>
	<path class="st0" d="M4.3,13.3c0.2,0,0.4-0.1,0.5-0.3c0.2-0.2,0.2-0.4,0.2-0.7V8.7l2.8-4.5c0-0.1,0.1-0.1,0.1-0.2l0-0.1
		c0-0.1,0-0.2,0-0.3c0-0.3-0.1-0.5-0.2-0.7C7.6,2.8,7.4,2.7,7.2,2.7C7,2.7,6.7,2.8,6.5,3.1L4.4,6.8L2,3.1C1.9,2.9,1.7,2.7,1.5,2.7
		l-0.1,0C1.2,2.7,1,2.8,0.8,2.9C0.6,3.1,0.5,3.3,0.5,3.6c0,0.1,0,0.2,0.1,0.3c0,0.1,0.1,0.2,0.2,0.4l2.7,4.2v3.9
		c0,0.2,0.1,0.4,0.2,0.6l0.1,0.1C3.9,13.2,4.1,13.3,4.3,13.3z"/>
	<path class="st1" d="M11.7,13.3c0.7,0,1.3-0.1,1.8-0.4c0.6-0.2,1-0.6,1.4-1.1c0.3-0.5,0.5-1,0.5-1.7c0-0.5-0.1-0.9-0.2-1.3
		c-0.1-0.3-0.4-0.6-0.6-0.9c-0.3-0.2-0.7-0.4-1.1-0.6c-0.4-0.1-0.9-0.3-1.5-0.4c-0.4-0.1-0.8-0.2-1.1-0.3c-0.3-0.1-0.6-0.3-0.7-0.5
		C9.9,6.2,9.9,5.9,9.9,5.6c0-0.2,0.1-0.5,0.2-0.7c0.1-0.2,0.4-0.3,0.6-0.4c0.3-0.1,0.6-0.2,1-0.2c0.2,0,0.5,0,0.8,0.1
		c0.3,0.1,0.6,0.2,0.8,0.3c0.3,0.1,0.5,0.3,0.6,0.4c0.1,0.1,0.2,0.1,0.4,0.1c0.2,0,0.4-0.1,0.6-0.3c0.2-0.2,0.2-0.4,0.2-0.6
		c0-0.3-0.1-0.6-0.4-0.8C14.5,3.4,14,3.2,13.5,3c-0.5-0.2-1.1-0.3-1.7-0.3c-0.7,0-1.3,0.1-1.8,0.4c-0.5,0.2-1,0.6-1.3,1
		c-0.3,0.5-0.5,1-0.5,1.6c0,0.4,0.1,0.8,0.2,1.1C8.5,7.2,8.7,7.5,9,7.7c0.3,0.3,0.6,0.5,1,0.6c0.4,0.2,0.9,0.3,1.4,0.4
		c0.5,0.1,1,0.2,1.4,0.3c0.4,0.1,0.6,0.3,0.8,0.5c0.2,0.2,0.3,0.5,0.3,0.8c0,0.2-0.1,0.5-0.3,0.7c-0.2,0.2-0.4,0.3-0.7,0.5
		c-0.3,0.1-0.6,0.2-1,0.2c-0.5,0-1-0.1-1.3-0.2c-0.4-0.2-0.7-0.4-1.1-0.7c-0.1-0.1-0.3-0.2-0.5-0.2c-0.2,0-0.4,0.1-0.6,0.3
		C8.1,10.9,8,11.1,8,11.4c0,0.1,0,0.3,0.1,0.4c0.1,0.1,0.2,0.3,0.3,0.4c0.5,0.4,1,0.7,1.5,0.9C10.5,13.2,11.1,13.3,11.7,13.3z"/>
</g>
</svg>
